<svg width="25" height="25" viewBox="0 0 25 25" fill="none" xmlns="http://www.w3.org/2000/svg">
<path d="M23.6881 20.5066L18.1817 15C17.3616 16.2771 16.2763 17.3621 15 18.1826L20.5064 23.6884C21.3857 24.5674 22.8111 24.5674 23.6881 23.6884C24.5666 22.8106 24.5666 21.3867 23.6881 20.5066Z" fill="#DFDFDF"/>
<path d="M17.9998 9.00023C17.9998 4.0302 13.9701 0 8.99989 0C4.03044 0 0 4.0302 0 9.00023C0 13.9699 4.03044 18.0001 8.99989 18.0001C13.9701 18.0001 17.9998 13.9699 17.9998 9.00023ZM8.99989 15.7497C5.27807 15.7497 2.25027 12.7218 2.25027 9.00023C2.25027 5.27787 5.27767 2.24956 8.99989 2.24956C12.7225 2.24956 15.7503 5.27748 15.7503 9.00023C15.7503 12.7214 12.7225 15.7497 8.99989 15.7497Z" fill="#DFDFDF"/>
</svg>
