<svg width="59" height="59" viewBox="0 0 59 59" fill="none" xmlns="http://www.w3.org/2000/svg">
<g clip-path="url(#clip0)">
<path d="M40.6656 39.6294C39.6354 39.6294 38.6051 39.8354 37.5749 40.2475L33.5569 35.5084L42.7261 11.6065L42.7261 11.5035C42.8291 11.1944 44.5806 3.57057 39.2233 0.170741C38.9142 -0.0353064 38.5021 -0.0353102 38.193 0.0677134C37.8839 0.170741 37.5749 0.479815 37.4718 0.788893L28.6117 27.5754L18.3092 1.30402C18.2061 0.994941 17.8971 0.78889 17.588 0.58284C17.2789 0.479816 16.8668 0.47982 16.6608 0.685871C14.3942 2.0252 10.9944 6.04318 14.1882 12.0186L23.7695 35.7144L19.9576 40.6596C18.9273 40.3506 17.8971 40.2475 16.8668 40.2475C11.7155 40.3506 7.59454 44.6776 7.69757 49.8289C7.80059 54.9801 12.1277 59.1011 17.2789 58.9981C22.4302 58.8951 26.5512 54.568 26.4481 49.4168C26.4481 47.5623 25.83 45.8109 24.7997 44.3685C24.3876 43.8534 23.6665 43.7504 23.1513 44.0595C22.6362 44.4716 22.5332 45.1927 22.8423 45.7079C23.6665 46.8411 24.0786 48.1805 24.0786 49.5198C24.1816 53.4348 21.0908 56.6285 17.1759 56.7316C13.2609 56.8346 10.0671 53.7438 9.96412 49.8289C9.8611 45.9139 12.9519 42.7201 16.8668 42.6171C17.8971 42.6171 18.9273 42.8232 19.8545 43.2353C20.1636 43.3383 20.4727 43.3383 20.7818 43.2353C21.0908 43.1322 21.2969 42.9262 21.3999 42.6171L25.933 36.7447C26.1391 36.4356 26.2421 36.0235 26.036 35.6114L16.2487 11.1944L16.2487 11.0914C14.2912 7.27948 15.6305 4.9099 16.7638 3.6736L27.5814 31.4904C27.7875 31.9025 28.1996 32.2116 28.7147 32.2116C29.2298 32.2116 29.6419 31.9025 29.745 31.3874L39.0172 3.2615C41.2838 5.94015 40.4596 10.3702 40.3565 10.9884L31.0843 35.4053C30.9813 35.8174 30.9813 36.2295 31.2903 36.5386L36.1325 42.205C36.2355 42.5141 36.5446 42.7201 36.7507 42.8232C37.0597 42.9262 37.3688 42.9262 37.6779 42.7201C38.6051 42.308 39.6354 41.999 40.6656 41.999C44.5806 41.8959 47.7744 44.9867 47.8774 48.9016C47.9804 52.8166 44.8896 56.0104 40.9747 56.1134C37.0597 56.2164 33.866 53.1257 33.7629 49.2107C33.7629 47.8714 34.072 46.5321 34.7932 45.2958C34.9992 44.8837 34.9992 44.3685 34.6902 43.9564L30.3631 38.7022C29.951 38.187 29.2298 38.084 28.7147 38.4961C28.1996 38.9082 28.0965 39.6294 28.5086 40.1445L32.5266 44.7806C31.8055 46.12 31.4964 47.6653 31.5994 49.2107C31.7024 54.362 36.0295 58.483 41.1807 58.38C46.332 58.2769 50.453 53.9499 50.35 48.7986C50.1439 43.5443 45.9199 39.4233 40.6656 39.6294Z" fill="#444444"/>
<path d="M17.0729 46.4289C17.691 46.4289 18.2061 45.9138 18.2061 45.1926C18.2061 44.5744 17.691 44.0593 16.9698 44.0593C13.8791 44.1623 11.4065 46.738 11.5095 49.8287C11.5095 51.4771 12.3337 53.0225 13.673 54.0527C13.9821 54.2588 14.2912 54.3618 14.4972 54.3618C14.8063 54.3618 15.1154 54.1558 15.4245 53.9497C15.8366 53.4346 15.7335 52.7134 15.2184 52.3013C14.3942 51.6832 13.9821 50.7559 13.8791 49.8287C13.8791 47.9743 15.3214 46.4289 17.0729 46.4289Z" fill="#444444"/>
</g>
<defs>
<clipPath id="clip0">
<rect width="59" height="59" fill="white"/>
</clipPath>
</defs>
</svg>
