<svg width="59" height="59" viewBox="0 0 59 59" fill="none" xmlns="http://www.w3.org/2000/svg">
<g clip-path="url(#clip0)">
<path d="M21.8854 59.3684L39.8747 59.3953C43.0357 59.4013 45.6045 56.8556 45.6105 53.6946C45.5564 53.6063 45.6446 53.5522 45.5905 53.4639L39.1263 13.5863C38.9782 12.9484 38.4771 12.5269 37.785 12.5867C37.1471 12.7347 36.7256 13.2359 36.7854 13.9279L43.2497 53.8055C43.1783 55.6707 41.7173 57.0518 39.9062 57.0687L21.9169 57.0418C20.1057 57.0587 18.5823 55.5635 18.5653 53.7524L24.9416 14.021L24.9758 13.8786C24.9104 12.5829 25.6993 11.4922 26.7245 10.9854L35.0883 10.9604C35.6579 11.0972 36.2958 10.9491 36.5749 10.4138C36.854 9.8784 36.6519 9.15221 36.1165 8.87309L34.8214 1.40904C34.7274 0.859413 34.2263 0.437908 33.6225 0.443559L28.0466 0.460229C27.4771 0.323495 27.0015 0.736385 26.953 1.25182L25.6567 8.84668C23.9252 9.78631 22.6465 11.6629 22.595 13.7588L16.2188 53.4902L16.1846 53.6326C16.2328 56.8819 18.7785 59.4507 21.8854 59.3684ZM29.0261 2.65307L32.6484 2.61917L33.5878 8.1154L33.4454 8.08122L28.3308 8.05805C28.3308 8.05805 28.1885 8.02387 28.1002 8.07797L29.0261 2.65307Z" fill="#444444"/>
<path d="M24.1688 28.2171L20.6672 50.6429L20.633 50.7853C20.6015 53.1119 22.4838 54.9944 24.8987 54.9718L37.0272 54.9471C39.3538 54.9786 41.2364 53.0964 41.2138 50.6815C41.2081 50.0777 40.7411 49.5138 40.0491 49.5736C39.4454 49.5792 38.8815 50.0462 38.9412 50.7382C38.9867 51.8033 38.0355 52.6291 37.0587 52.6205L24.9302 52.6452C23.9534 52.6366 23.0934 51.8278 23.102 50.851L26.6577 28.5135C26.7403 27.8556 26.3616 27.2377 25.7038 27.155L25.5614 27.1208C24.7811 27.2347 24.3055 27.6476 24.1688 28.2171Z" fill="#444444"/>
<path d="M26.0486 24.1506C26.7064 24.2332 27.2703 23.7662 27.407 23.1967L28.0253 19.0533C28.108 18.3954 27.641 17.8315 27.0714 17.6948L26.929 17.6606C26.3253 17.6663 25.8497 18.0792 25.8013 18.5946L25.183 22.738C24.958 23.3617 25.3908 24.068 26.0486 24.1506Z" fill="#444444"/>
</g>
<defs>
<clipPath id="clip0">
<rect width="59" height="59" fill="white"/>
</clipPath>
</defs>
</svg>
