<svg width="59" height="59" viewBox="0 0 59 59" fill="none" xmlns="http://www.w3.org/2000/svg">
<g clip-path="url(#clip0)">
<path d="M26.1726 46.2222C26.38 46.0156 26.5063 45.7677 26.4705 45.4372L25.7149 22.6742C25.6823 22.1371 25.1991 21.6828 24.6675 21.7242C24.1359 21.7656 23.6791 22.2614 23.7118 22.7984L24.4673 45.5615C24.5 46.0985 24.9832 46.5529 25.5147 46.5115C25.8 46.5528 26.0884 46.3875 26.1726 46.2222Z" fill="#444444"/>
<path d="M25.0108 48.9143L25.1502 51.4227C25.1941 51.9326 25.6779 52.3741 26.1981 52.3466C26.4787 52.3921 26.6774 52.2009 26.8367 52.087C27.0354 51.8958 27.1537 51.6636 27.1112 51.3494L26.9718 48.841C26.9279 48.3312 26.4441 47.8897 25.9239 47.9171C25.4036 47.9445 24.9668 48.4044 25.0108 48.9143Z" fill="#444444"/>
<path d="M37.6743 0.0290238C37.0591 0.0236578 36.6048 0.511025 36.6424 1.04363L36.6265 3.50013L34.7811 3.48404L34.7554 1.10906C34.7594 0.494928 34.2701 0.0402753 33.7367 0.0765668C33.1216 0.0712009 32.6673 0.558568 32.7049 1.09117L32.689 3.54768L30.8435 3.53158L30.8178 1.1566C30.9036 0.584128 30.4143 0.129475 29.7992 0.124109C29.2658 0.160401 28.853 0.566242 28.7673 1.13871L28.793 3.5137L26.9877 3.62078L27.0036 1.16427C26.966 0.63167 26.4768 0.177018 25.9032 0.0901262C25.3698 0.126418 24.9155 0.613785 24.9115 1.22791L24.9372 3.6029L23.0917 3.5868L23.066 1.21181C23.07 0.597688 22.5808 0.143035 21.9656 0.137669C21.4322 0.17396 20.9779 0.661327 21.0155 1.19393L20.9996 3.65044C18.7427 3.83547 17.0073 5.8266 16.9928 8.0784C16.9716 11.3537 20.3758 11.3425 21.5243 11.3116L23.4113 11.2461L23.4627 15.9961C21.2783 17.6558 19.7051 19.9349 19.6879 22.5961L21.1485 50.4509C21.1755 52.6211 22.0643 54.7171 23.5721 56.2042C25.1618 57.733 27.207 58.5697 29.3808 58.5477L31.4314 58.5656C33.687 58.5853 35.7441 57.5796 37.1887 56.1592C38.6749 54.6572 39.5083 52.6173 39.4813 50.447L40.3594 22.4489C40.3673 21.2206 39.9652 19.9888 39.2748 18.9182C39.0322 18.3838 38.5001 18.2154 37.9239 18.5379C37.4709 18.8206 37.3436 19.4746 37.6278 19.9275C38.1559 20.71 38.4374 21.5723 38.4322 22.3911L37.5541 50.3893C37.5732 53.7878 34.8488 56.5073 31.5264 56.5602L29.4758 56.5423C26.0717 56.5535 23.3414 53.8274 23.3223 50.4289L21.78 22.5325C21.7609 19.134 25.7156 16.4252 29.038 16.3723L31.0886 16.3902C32.4422 16.361 33.7932 16.7413 35.0597 17.4894C35.5503 17.7393 36.207 17.6631 36.4977 17.0925C36.6224 16.8479 36.6652 16.5616 36.5848 16.3153L36.5361 11.1559L38.5866 11.1738C39.3251 11.1393 41.1706 11.1554 42.244 10.0592C42.6983 9.57188 43.0721 8.83815 43.0372 7.89613C43.0451 6.66788 42.5599 5.59909 41.6632 4.73145C40.8483 3.90546 39.8256 3.4871 38.7186 3.4365L38.7345 0.979986C38.6554 0.528911 38.2077 -0.00726775 37.6743 0.0290238ZM40.9451 7.95977C40.9827 8.49237 40.9787 9.1065 38.5998 9.12669L28.1408 9.24018C27.854 9.19674 27.5659 9.358 27.3595 9.56092C27.1531 9.76384 27.0285 10.0084 27.0674 10.3363C27.0634 10.9504 27.5526 11.4051 28.086 11.3688L34.4025 11.3011L34.4604 15.0275C33.3561 14.5675 32.1271 14.352 30.9785 14.383L28.928 14.3651C27.7794 14.396 26.6295 14.6316 25.4783 15.072L25.427 10.322C25.4698 10.0358 25.3076 9.74775 25.1039 9.54125C24.9002 9.33475 24.6549 9.20978 24.3265 9.24786L21.4143 9.30435C19.0354 9.32454 19.0393 8.71041 19.0433 8.09629C19.011 6.74485 20.0844 5.64872 21.3965 5.70111L22.0117 5.70647L29.8452 5.69291L33.7828 5.64537L37.7204 5.59783L38.5406 5.60498C39.8124 5.53419 40.9128 6.60833 40.9451 7.95977Z" fill="#444444"/>
</g>
<defs>
<clipPath id="clip0">
<rect width="59" height="59" fill="white"/>
</clipPath>
</defs>
</svg>
