<svg width="59" height="59" viewBox="0 0 59 59" fill="none" xmlns="http://www.w3.org/2000/svg">
<g clip-path="url(#clip0)">
<path d="M26.6541 42.8917C26.2201 42.5286 25.5643 42.4784 25.2012 42.9125C24.8382 43.3465 24.788 44.0023 25.222 44.3654C26.3223 45.505 27.8562 46.1501 29.4403 46.1393C29.7027 46.1594 29.975 46.0483 30.1868 45.8666C30.3986 45.6849 30.4893 45.362 30.5094 45.0996C30.4889 44.5043 30.0649 44.0101 29.4697 44.0306C28.4203 43.9503 27.391 43.6077 26.6541 42.8917Z" fill="#444444"/>
<path d="M23.3312 34.5893L23.3234 39.8663C23.3439 40.4615 23.7679 40.9558 24.3631 40.9353C24.6255 40.9554 24.8979 40.8443 25.1097 40.6626C25.3215 40.4809 25.4121 40.158 25.4322 39.8956L25.44 34.6187C25.4188 32.3081 27.2745 30.471 29.5144 30.5104C30.1097 30.4899 30.6039 30.0659 30.5835 29.4707C30.563 28.8754 30.1391 28.3812 29.5438 28.4016C26.1133 28.4031 23.3297 31.1588 23.3312 34.5893Z" fill="#444444"/>
<path d="M32.1042 0.0986911C25.2733 -0.291814 18.5148 3.54525 12.1618 11.5694C11.8694 11.9428 11.8293 12.4675 12.1321 12.8205L19.8255 24.3598C20.1184 24.844 20.8348 24.9647 21.319 24.6719C21.8031 24.3791 21.9239 23.6627 21.6311 23.1785L14.2204 12.2546C20.0997 5.24972 26.031 1.87715 32.0143 2.13686C35.8888 2.36722 39.3101 4.21214 41.9848 6.32981L37.9523 14.2016C37.6499 14.7062 37.9326 15.3215 38.4373 15.624C38.8813 15.8559 39.3555 15.6942 39.6379 15.452C39.7085 15.3914 39.7791 15.3308 39.7891 15.1996L43.5897 7.77194C45.558 9.63768 46.9411 11.3927 47.5973 12.3005L36.7366 25.7851C35.7779 25.3819 34.678 25.0999 33.558 25.0802L27.6252 25.0223C27.6252 25.0223 27.5546 25.0829 27.494 25.0123L20.9793 9.27513C20.757 8.73038 20.1818 8.48848 19.6371 8.7107C19.0217 8.99348 18.8404 9.6393 19.0626 10.184L25.4157 25.447C24.0639 25.8714 22.8938 26.5075 21.8247 27.5473C20.2514 29.1421 19.3644 31.2513 19.3251 33.4912L19.2779 41.0081C19.2385 43.248 20.0668 45.3564 21.6617 46.9297C21.9645 47.2827 22.338 47.5752 22.7114 47.8676C21.4101 48.4937 20.7346 49.5635 20.7353 51.2788C20.7361 52.994 21.3422 54.5577 22.5636 55.8385C23.7244 57.0488 25.3189 57.7645 27.0342 57.7637L33.8952 57.7607C35.6104 57.76 37.1841 57.0227 38.3238 55.9224C39.534 54.7616 40.2497 53.1671 40.1884 51.3812C40.1679 50.786 39.744 50.2918 39.1487 50.3122C38.5534 50.3326 38.0592 50.7566 38.0796 51.3519C38.0302 53.723 36.2351 55.6308 33.864 55.5813L27.0029 55.5844C25.883 55.5647 24.7931 55.1515 24.0663 54.3042C23.2688 53.5176 22.8244 52.4281 22.8441 51.3081C22.8738 50.057 23.2874 49.8247 23.701 49.5925C24.4475 49.3198 25.6381 49.2789 26.8892 49.3086L34.0126 49.3256C34.0126 49.3256 34.1437 49.3357 34.2143 49.2751C36.1414 49.0926 37.9874 48.2443 39.4095 46.9017C40.9828 45.3069 41.8698 43.1977 41.9092 40.9578L41.8151 33.5621C41.8545 31.3221 41.0262 29.2137 39.4313 27.6404C39.1891 27.358 38.8762 27.1362 38.5633 26.9144L49.6559 12.9857C49.9483 12.6122 49.9179 12.1481 49.7462 11.8051C49.4534 11.321 42.6785 0.709529 32.1042 0.0986911ZM39.7063 33.5327L39.6592 41.0496C39.6599 42.7649 38.9443 44.3593 37.7946 45.5908C36.5843 46.7516 35.0812 47.4283 33.4366 47.3685L27.5038 47.3106C25.8592 47.2507 24.3252 46.6057 23.0938 45.456C21.9329 44.2457 21.3269 42.6821 21.3261 40.9668L21.3733 33.45C21.3725 31.7347 22.0882 30.1402 23.2379 28.9088C24.4481 27.7479 25.9512 27.0712 27.5959 27.1311L33.5286 27.189C35.1733 27.2488 36.7072 27.8939 37.9387 29.0436C39.0995 30.2538 39.7056 31.8175 39.7063 33.5327Z" fill="#444444"/>
<path d="M36.1698 21.9817C36.2404 21.9211 36.311 21.8605 36.3917 21.6688L38.0248 18.4293C38.3273 17.9247 38.0445 17.3093 37.5399 17.0069C37.0352 16.7044 36.4199 16.9872 36.1174 17.4918L34.4843 20.7313C34.1818 21.2359 34.4646 21.8513 34.9692 22.1537C35.4133 22.3856 35.8774 22.3551 36.1698 21.9817Z" fill="#444444"/>
</g>
<defs>
<clipPath id="clip0">
<rect width="59" height="59" fill="white"/>
</clipPath>
</defs>
</svg>
