<svg width="59" height="59" viewBox="0 0 59 59" fill="none" xmlns="http://www.w3.org/2000/svg">
<path d="M48.4461 13.8449C45.1598 9.20537 38.7804 7.94883 34.0443 11.2352C33.561 11.6218 33.4643 12.2984 33.7543 12.7817C34.1409 13.2649 34.8175 13.3616 35.3008 13.0716C38.9737 10.4619 44.0965 11.4285 46.7063 15.1014C47.7695 16.6479 48.2528 18.3877 48.1561 20.2242C48.1561 20.8041 48.5427 21.3841 49.2193 21.3841C49.316 21.3841 49.4126 21.3841 49.606 21.3841C50.0892 21.2874 50.3792 20.9008 50.3792 20.4175C50.4759 18.0011 49.7993 15.6814 48.4461 13.8449Z" fill="#444444"/>
<path d="M47.2864 23.3176C46.7064 24.5741 45.7399 25.6374 44.6767 26.4106C44.1934 26.7972 44.0967 27.4738 44.3867 27.9571C44.6766 28.3438 45.1599 28.5371 45.5466 28.3438C45.6432 28.3438 45.7399 28.2471 45.8365 28.1504C47.2864 27.1839 48.4463 25.8307 49.2195 24.2842C49.5095 23.7042 49.3162 23.1243 48.7362 22.8343C48.2529 22.641 47.5763 22.8343 47.2864 23.3176Z" fill="#444444"/>
<path d="M55.212 15.1982C52.7956 6.69246 43.9032 1.66632 35.3974 3.98608C30.0813 5.43593 25.9251 9.4955 24.2819 14.715L2.43758 22.7374C1.95429 22.9308 1.56767 23.5107 1.76098 24.0906L4.75733 35.0128C4.95065 35.5928 5.43393 35.8827 6.01387 35.7861L28.7281 31.3399C30.9512 33.3697 33.7543 34.7229 36.654 35.3028V35.3994L41.0035 51.2511C42.0667 55.0207 45.933 57.2438 49.7993 56.1806C53.5689 55.1174 55.792 51.2511 54.7287 47.3849L50.2826 31.4365C54.9221 27.5703 56.8552 21.1909 55.212 15.1982ZM48.3494 30.3733C47.9628 30.6633 47.8661 31.0499 47.9628 31.5332L52.6023 48.0615C53.3756 50.6712 51.8291 53.3776 49.1227 54.1508C46.5129 54.9241 43.8066 53.3776 43.0333 50.6712L41.3902 44.1952L43.7099 43.5186C44.2898 43.3253 44.6765 42.7453 44.4832 42.1654C44.2898 41.5855 43.7099 41.1988 43.13 41.3922L40.8102 42.0687L40.5202 41.1022L42.84 40.4256C43.4199 40.2323 43.8066 39.6523 43.6133 39.0724C43.4199 38.4925 42.84 38.1058 42.2601 38.2991L39.9403 38.9757L38.9737 35.4961C40.6169 35.5928 42.2601 35.3994 43.9032 34.9162C44.4832 34.7229 44.8698 34.1429 44.6765 33.563C44.4832 32.983 43.9032 32.5964 43.3233 32.7897C38.4905 34.1429 33.3677 32.7897 29.7914 29.3101C29.6947 29.2134 29.6947 29.2134 29.5981 29.1168C29.5014 29.1168 29.5014 29.0201 29.4047 29.0201C29.3081 29.0201 29.3081 29.0201 29.2114 29.0201C29.2114 29.0201 29.2114 29.0201 29.1148 29.0201C29.0181 29.0201 29.0181 29.0201 28.9215 29.0201H28.8248H28.7281L6.49715 33.3697L3.98408 24.3806L25.3452 16.4548H25.4418H25.5385L25.6351 16.3581C25.6351 16.3581 25.6351 16.3581 25.7318 16.3581L25.8285 16.2615C25.8285 16.2615 25.8285 16.2615 25.9251 16.1648L26.0218 16.0681C26.0218 16.0681 26.0218 16.0681 26.0218 15.9715C26.0218 15.9715 26.0218 15.8748 26.1184 15.7782C27.5683 11.1387 31.2412 7.36906 35.9774 6.11252C43.3233 4.08274 51.0558 8.43228 53.0856 15.7782C54.5354 21.1909 52.699 26.8937 48.3494 30.3733Z" fill="#444444"/>
<path d="M21.5757 27.3771L8.52704 29.7935C7.94711 29.8902 7.56048 30.4701 7.65714 31.0501C7.75379 31.63 8.33373 32.0166 8.91367 31.92L21.9623 29.5036H22.059C22.6389 29.3102 22.9289 28.827 22.8322 28.247C22.7356 27.6671 22.1556 27.2805 21.5757 27.3771Z" fill="#444444"/>
<path d="M44.0966 18.8713C43.42 16.5515 41.0036 15.1016 38.6838 15.7782C36.3641 16.4548 34.9142 18.8713 35.5908 21.191C36.2674 23.5108 38.6838 24.9606 41.0036 24.284C43.3233 23.6074 44.7732 21.191 44.0966 18.8713ZM40.4236 22.1576C39.2638 22.4475 38.0072 21.7709 37.6206 20.6111C37.3306 19.4512 38.0072 18.1947 39.1671 17.808C40.327 17.5181 41.5835 18.1947 41.9701 19.3545C42.3568 20.6111 41.5835 21.8676 40.4236 22.1576Z" fill="#444444"/>
</svg>
