<svg width="59" height="59" viewBox="0 0 59 59" fill="none" xmlns="http://www.w3.org/2000/svg">
<g clip-path="url(#clip0)">
<path d="M12.7273 53.3154L16.8131 53.3442C17.4443 53.3601 18.0334 52.8362 18.1073 52.1137L18.2302 19.9998C18.2462 19.3686 17.7223 18.7795 16.9997 18.7056C16.3686 18.6897 15.7795 19.2135 15.7056 19.9361L15.5565 50.8791L13.9038 50.8559L14.0741 8.76819L20.9835 8.79391C21.6146 8.80983 22.2037 8.286 22.2777 7.56342L22.2977 3.08724L36.5069 3.12994L36.3374 7.63951C36.3461 8.02981 36.4709 8.23729 36.6871 8.5028C36.9033 8.76831 37.2356 8.851 37.4764 8.87565L39.9097 8.88131L39.8202 41.1447C39.8042 41.7758 40.3281 42.3649 41.0506 42.4388C41.6818 42.4548 42.2709 41.9309 42.3448 41.2084L42.4344 8.945L44.4773 8.95939L44.2157 50.9891L37.3062 50.9634C36.6751 50.9475 36.086 51.4713 36.0121 52.1939L35.992 56.6701L21.7828 56.6274L21.8029 52.1512C21.8188 51.52 21.295 50.931 20.5724 50.857C20.1821 50.8657 19.9746 50.9905 19.7091 51.2067C19.4436 51.4229 19.3609 51.7552 19.3363 51.9961L19.2844 57.7346C19.5339 58.1495 19.6921 58.5065 19.9083 58.772C20.1245 59.0375 20.4568 59.1202 20.6977 59.1448L37.3401 59.1932C37.9712 59.2091 38.5603 58.6853 38.6343 57.9627L38.6543 53.4865L45.5637 53.5122C45.954 53.5035 46.1615 53.3787 46.427 53.1625C46.6925 52.9463 46.7752 52.614 46.8579 52.2818L46.9459 30.0213L47.0338 7.76076C47.0497 7.1296 46.5259 6.54054 45.8033 6.46659L38.8939 6.44087L38.9139 1.96469C38.9299 1.33352 38.406 0.744463 37.6835 0.670509L20.9496 0.56411C20.5593 0.572838 20.3518 0.697632 20.0863 0.913841C19.8208 1.13005 19.7381 1.46232 19.7135 1.70318L19.6934 6.17936L12.784 6.15365C12.5185 6.36986 12.2196 6.43662 11.9541 6.65283C11.6886 6.86903 11.6059 7.20131 11.5232 7.53358L11.4387 52.1126C11.4475 52.5029 11.5723 52.7104 11.7885 52.9759C12.0627 53.15 12.337 53.3241 12.7273 53.3154Z" fill="#444444"/>
<path d="M25.9717 51.8477C26.5869 52.4948 27.5257 52.8343 28.3977 52.8749C29.2697 52.9155 30.133 52.5657 30.8382 51.8591C31.4852 51.2438 31.8247 50.305 31.8653 49.433L31.9008 36.2453C32.5232 35.8709 33.0542 35.4385 33.5853 35.0061C34.9375 33.6842 35.7078 31.8647 35.6642 29.9132C35.6945 27.2391 34.2304 24.8988 31.9784 23.5974L32.0139 10.4097C32.0545 9.53766 31.7048 8.67437 30.9981 7.96925C30.3829 7.32216 29.4441 6.98269 28.5721 6.94211C27.7 6.90154 26.8367 7.25126 26.1316 7.95792C25.4845 8.57316 25.1451 9.51195 25.1045 10.384L25.069 23.5717C24.4465 23.946 23.9155 24.3785 23.3845 24.8109C22.0323 26.1328 21.2619 27.9523 21.3056 29.9038C21.2753 32.5779 22.7394 34.9182 24.9914 36.2196L24.9559 49.4073C25.0067 50.3374 25.3564 51.2007 25.9717 51.8477ZM27.3891 49.413L27.4652 35.3532C27.4231 34.8135 27.0821 34.3405 26.6584 34.1998C24.8388 33.4294 23.7491 31.7116 23.7969 29.8181C23.8287 28.5558 24.3423 27.3427 25.1635 26.4533C25.6031 25.9628 26.1675 25.6798 26.5824 25.4302L26.7319 25.3969C27.2382 25.2053 27.5284 24.7482 27.5777 24.2665L27.5958 10.2982C27.5536 9.75847 28.0847 9.32606 28.5664 9.37536C28.8073 9.40001 29.0481 9.42466 29.2643 9.69017C29.3891 9.89765 29.5139 10.1051 29.5807 10.404L29.5626 24.3723C29.5133 24.854 29.8543 25.327 30.3694 25.5258C32.189 26.2961 33.3367 27.9226 33.3224 29.9655C33.2905 31.2279 32.7769 32.4409 31.9558 33.3304C31.5161 33.8208 30.9517 34.1038 30.5368 34.3534L30.3873 34.3867C29.881 34.5783 29.5908 35.0354 29.5415 35.5171L29.3406 49.3693C29.3827 49.9091 28.8517 50.3415 28.37 50.2922C28.1291 50.2675 27.8883 50.2429 27.6721 49.9774C27.4892 49.8613 27.3644 49.6538 27.3891 49.413Z" fill="#444444"/>
<path d="M18.0938 16.5786L18.1488 13.6636C18.1647 13.0324 17.6409 12.4434 16.9183 12.3694C16.528 12.3782 16.3205 12.503 16.055 12.7192C15.7895 12.9354 15.7068 13.2676 15.6821 13.5085L15.6272 16.4235C15.6112 17.0546 16.1351 17.6437 16.8577 17.7176C17.5802 17.7916 18.0779 17.2097 18.0938 16.5786Z" fill="#444444"/>
</g>
<defs>
<clipPath id="clip0">
<rect width="59" height="59" fill="white"/>
</clipPath>
</defs>
</svg>
